<?xml version="1.0" standalone="no"?>
<!DOCTYPE svg PUBLIC "-//W3C//DTD SVG 20010904//EN"
 "http://www.w3.org/TR/2001/REC-SVG-20010904/DTD/svg10.dtd">
<svg version="1.0" xmlns="http://www.w3.org/2000/svg"
 width="1080.000000pt" height="1920.000000pt" viewBox="0 0 1080.000000 1920.000000"
 preserveAspectRatio="xMidYMid meet">

<g transform="translate(0.000000,1920.000000) scale(0.100000,-0.100000)"
fill="#000000" stroke="none">
<path d="M6323 13851 c-40 -19 -73 -62 -73 -96 0 -25 -25 -28 -102 -11 -236
51 -592 72 -1028 59 -168 -5 -311 -7 -317 -5 -7 2 -13 10 -13 18 0 11 -16 14
-65 14 -36 0 -74 5 -84 12 -15 9 -28 9 -58 -1 -21 -7 -49 -11 -63 -9 -65 7
-299 -39 -485 -97 -66 -21 -139 -41 -161 -46 -44 -8 -193 -70 -335 -137 -46
-22 -101 -46 -121 -52 -21 -6 -41 -16 -44 -22 -4 -5 -36 -24 -73 -42 -83 -39
-307 -172 -341 -201 -14 -12 -50 -37 -80 -55 -30 -18 -70 -45 -90 -61 -19 -16
-66 -52 -105 -80 -147 -109 -460 -397 -497 -457 -26 -43 -21 -122 11 -155 11
-13 21 -32 21 -43 0 -10 -52 -84 -114 -163 -139 -175 -289 -395 -366 -536 -18
-33 -44 -80 -58 -105 -14 -25 -59 -110 -100 -190 -41 -80 -85 -161 -98 -180
-13 -19 -24 -40 -24 -47 0 -7 -7 -13 -15 -13 -8 0 -15 -4 -15 -10 0 -5 -6 -10
-13 -10 -28 0 -96 -88 -113 -147 -9 -32 -23 -68 -31 -80 -24 -36 -123 -315
-123 -346 0 -9 -9 -43 -20 -75 -18 -50 -37 -140 -70 -332 -39 -225 -50 -799
-21 -1065 34 -306 125 -724 177 -802 24 -37 71 -56 126 -51 27 3 54 0 63 -6 8
-6 32 -56 53 -111 108 -275 218 -507 311 -655 13 -19 43 -69 68 -110 26 -41
58 -94 72 -116 14 -23 40 -63 56 -90 17 -26 35 -56 41 -66 6 -10 18 -26 27
-36 26 -28 47 -88 47 -132 0 -22 5 -40 10 -40 6 0 10 -10 10 -22 1 -26 22 -58
39 -58 7 0 9 -9 6 -23 -4 -16 0 -29 14 -41 12 -11 21 -24 21 -29 0 -24 182
-243 258 -311 13 -12 60 -57 106 -102 45 -44 105 -98 133 -120 232 -178 337
-254 421 -306 53 -34 104 -67 112 -74 24 -20 363 -190 477 -239 112 -48 325
-128 418 -155 269 -81 312 -89 369 -70 41 13 86 56 86 81 0 9 8 27 18 39 l18
22 159 -25 c152 -24 200 -30 390 -43 119 -9 418 -6 619 6 200 11 256 7 256
-20 0 -19 57 -31 143 -30 26 1 47 -3 47 -8 0 -19 208 3 265 28 11 5 38 11 60
14 92 13 312 67 346 86 9 5 36 14 60 20 24 6 62 20 84 30 22 9 67 28 100 40
100 38 375 168 444 210 37 21 77 43 91 49 49 20 379 241 435 290 17 15 42 35
57 44 71 44 452 396 474 438 8 16 15 52 16 80 1 48 -2 54 -36 83 -48 40 -44
59 30 146 89 104 177 220 255 337 71 105 139 212 139 219 0 2 22 41 49 86 27
46 70 124 96 173 26 50 65 122 86 160 21 39 49 94 63 123 23 47 29 52 59 52
32 0 77 33 77 56 0 6 17 37 38 70 22 32 42 73 46 89 4 17 18 46 31 65 13 19
28 61 35 93 6 31 22 84 36 117 13 34 32 96 40 138 9 42 20 95 24 117 78 382
99 651 81 1055 -11 243 -31 416 -69 600 -73 345 -101 428 -158 474 -33 26 -40
28 -94 22 -71 -8 -74 -5 -121 129 -80 233 -286 630 -483 935 -129 198 -131
202 -114 229 9 15 7 24 -10 49 -12 16 -22 37 -22 46 0 9 -4 24 -9 34 -6 9 -13
30 -16 46 -3 16 -30 54 -59 85 -29 31 -78 88 -108 126 -65 83 -306 325 -373
375 -25 19 -67 52 -92 73 -25 21 -58 46 -72 55 -14 9 -44 32 -66 52 -64 57
-414 271 -550 337 -27 13 -59 29 -70 35 -104 61 -452 195 -694 267 -171 52
-232 58 -288 32z m-542 -197 c448 -42 875 -154 1284 -336 61 -27 121 -55 135
-62 14 -8 84 -45 156 -84 632 -340 1201 -891 1561 -1512 158 -274 261 -500
350 -770 141 -427 201 -783 208 -1235 9 -556 -79 -1034 -296 -1595 -40 -104
-210 -438 -292 -575 -117 -194 -248 -374 -406 -554 -276 -315 -600 -591 -941
-802 -388 -240 -836 -419 -1280 -513 -334 -70 -498 -86 -867 -88 -346 -1 -589
27 -933 108 -456 107 -896 295 -1290 552 -77 51 -322 234 -400 300 -236 200
-478 460 -662 713 -72 98 -168 238 -168 243 0 2 -19 35 -42 72 -51 85 -223
425 -262 519 -151 364 -255 783 -291 1173 -29 310 -17 723 30 1022 46 293 166
721 260 925 19 41 35 78 35 81 0 16 195 391 253 487 94 155 218 324 385 527
205 249 596 589 891 777 336 213 719 386 1078 486 272 76 419 105 708 137 210
23 574 25 796 4z"/>
<path d="M6435 11109 c-322 -58 -535 -180 -724 -414 -197 -243 -306 -502 -373
-880 -16 -92 -16 -517 1 -610 26 -152 34 -193 53 -262 19 -74 79 -246 96 -279
5 -11 16 -32 23 -49 79 -173 236 -381 369 -486 83 -66 249 -159 284 -159 8 0
17 -4 20 -9 3 -5 18 -12 33 -15 266 -65 417 -70 658 -21 110 22 141 29 150 35
6 4 24 10 40 13 17 3 48 11 70 17 203 58 291 66 472 44 41 -5 56 -3 77 12 l25
19 1 603 0 602 143 0 c137 0 144 1 165 23 33 35 31 109 -4 136 -26 21 -35 21
-589 21 -554 0 -563 0 -589 -21 -22 -18 -26 -28 -26 -74 0 -78 13 -85 166 -85
67 0 129 -3 138 -6 14 -5 16 -62 16 -539 l0 -533 -52 -20 c-29 -11 -78 -26
-108 -32 -30 -7 -71 -16 -91 -21 -20 -5 -96 -9 -169 -9 -161 0 -260 23 -348
79 -109 71 -205 198 -247 326 -9 28 -20 59 -24 70 -8 17 -34 131 -61 260 -62
298 -68 1001 -10 1365 44 279 115 458 227 567 62 61 109 88 208 120 59 20 91
23 212 23 78 0 152 -4 165 -9 13 -5 43 -14 68 -21 107 -29 223 -109 301 -208
122 -154 196 -327 239 -553 5 -26 14 -56 21 -67 24 -38 88 -54 130 -32 48 26
49 36 49 555 l0 486 -27 24 c-58 51 -126 25 -153 -57 -13 -43 -43 -68 -80 -68
-26 0 -119 23 -250 61 -82 23 -250 62 -346 78 -71 13 -278 12 -349 0z"/>
<path d="M2755 11016 c-23 -16 -33 -101 -35 -271 0 -60 -7 -213 -15 -340 -8
-126 -15 -294 -16 -373 -2 -168 2 -178 85 -184 46 -3 51 -1 71 29 18 26 23 53
29 145 23 357 84 571 193 674 85 80 278 140 473 146 l85 3 0 -1335 0 -1335
-135 -5 c-80 -3 -144 -10 -157 -17 -25 -15 -39 -77 -24 -115 23 -60 1 -58 637
-58 573 0 582 0 608 21 22 18 26 28 26 75 0 51 -2 56 -32 74 -29 18 -51 20
-185 20 l-153 0 0 1341 0 1340 88 -6 c218 -15 393 -71 476 -151 36 -35 84
-115 105 -174 7 -19 17 -44 21 -55 5 -11 13 -49 20 -85 6 -36 15 -83 20 -105
9 -39 15 -107 29 -302 7 -104 15 -117 86 -127 36 -5 43 -2 70 27 l30 32 -7
150 c-4 83 -11 263 -17 400 -22 543 -21 534 -49 555 -24 20 -50 20 -1166 20
-957 0 -1145 -2 -1161 -14z"/>
</g>
</svg>
