<?xml version="1.0" standalone="no"?>
<!DOCTYPE svg PUBLIC "-//W3C//DTD SVG 20010904//EN"
 "http://www.w3.org/TR/2001/REC-SVG-20010904/DTD/svg10.dtd">
<svg version="1.0" xmlns="http://www.w3.org/2000/svg"
 width="1080.000000pt" height="1080.000000pt" viewBox="0 0 1080.000000 1080.000000"
 preserveAspectRatio="xMidYMid meet">

<g transform="translate(0.000000,1080.000000) scale(0.100000,-0.100000)"
fill="#000000" stroke="none">
<path d="M3603 7500 c-49 -30 -55 -65 -51 -315 3 -241 6 -252 64 -280 27 -12
91 -15 378 -15 l347 0 24 -25 25 -24 0 -1456 c0 -1596 -3 -1508 58 -1520 70
-15 87 -22 90 -37 2 -9 -12 -49 -31 -90 -70 -149 -115 -254 -187 -441 -13 -32
-20 -61 -16 -65 10 -9 27 20 21 36 -2 6 -1 12 4 12 8 0 83 114 155 240 24 41
101 174 171 295 70 121 141 245 158 275 17 30 56 98 87 150 31 52 74 125 94
163 39 70 59 83 70 45 3 -13 6 -117 6 -233 0 -190 3 -219 25 -307 76 -299 251
-482 530 -553 147 -37 187 -40 595 -40 413 0 458 3 600 42 267 74 448 257 519
526 36 135 41 218 41 720 0 470 -1 493 -20 524 -36 60 -20 58 -567 58 -494 0
-502 0 -530 -21 l-28 -21 -2 -239 c-3 -270 -3 -271 69 -285 24 -4 118 -8 211
-9 228 0 210 25 205 -279 -3 -162 -9 -247 -18 -271 -29 -77 -82 -132 -148
-156 -47 -17 -597 -19 -656 -3 -56 15 -121 80 -148 147 l-23 57 -3 888 c-1
488 -6 887 -10 887 -7 0 -127 -201 -208 -348 -33 -59 -65 -115 -154 -267 -29
-49 -64 -110 -78 -135 -79 -141 -114 -199 -132 -215 l-20 -18 0 980 c0 899 1
982 17 994 13 11 93 15 385 19 l370 5 29 33 29 32 0 248 c0 267 -2 273 -57
301 -16 8 -336 11 -1140 11 -1091 0 -1119 -1 -1150 -20z"/>
<path d="M6389 7062 c-52 -86 -103 -175 -115 -197 -11 -22 -60 -107 -109 -190
-48 -82 -124 -213 -167 -289 -44 -77 -91 -157 -104 -178 -29 -46 -32 -73 -6
-63 50 20 167 27 387 23 214 -4 245 -7 285 -25 63 -29 97 -64 127 -131 23 -50
26 -74 31 -205 4 -127 8 -151 24 -173 l20 -24 286 2 286 3 23 34 c21 31 23 45
23 160 -1 458 -156 732 -485 858 -115 44 -175 54 -379 62 -100 4 -187 10 -194
15 -23 14 -25 9 135 384 19 46 33 85 31 87 -2 3 -47 -66 -99 -153z"/>
</g>
</svg>
